# xmcd
#
# Track frame offsets:
#	150
#	11410
#	23400
#	34278
#	48271
#	60783
#	75846
#	94630
#	108283
#	133546
#	147816
#	163964
#	180415
#	196030
#	211708
#	224225
#	235770
#	246771
#	260443
#	293391
#
# Disc length: 4140 seconds
#
# Revision: 0
# Processed by: cddbd v1.4PL0 Copyright (c) Steve Scherf et al.
# Submitted via: EasyCDDAExtractor 4.6.9.1
#
DISCID=f9102a14
DTITLE=Varios - La Música de México [CD 2)
DYEAR=2002
DGENRE=Country
TTITLE0=El Rey (Jorge Negrete)
TTITLE1=Ella (Maria Vidal)
TTITLE2=Para Morir Iguales (Jorge Negrete)
TTITLE3=L aMano de Dios (Jorge Negrete)
TTITLE4=La Media Vuelta (Jorge Negrete)
TTITLE5=Te Solte La Rienda (Jorge NEgrete)
TTITLE6=Nunca, Nunca, Nunca (Maria de Lourdes)
TTITLE7=Fallaste Corazon (Maria de Lourdes)
TTITLE8=Amor Eterno (Mariachi Arriba Juárez)
TTITLE9=Mujeres Divinas (Mariachi Arriba Juárez)
TTITLE10=La Diferencia (Mariachi Arriba Juárez)
TTITLE11=Cielito Lindo (Mariachi Arriba Juárez)
TTITLE12=La Negra Noche (Jorge Negrete)
TTITLE13=Cielo Rojo (Aida Cuevas)
TTITLE14=Volver, Volver (Maria Vidal)
TTITLE15=La Tequilera (Aida Cuevas)
TTITLE16=El Ultimo Trago (Maria Vidal)
TTITLE17=La Farsante (Mariachi Arriba Juárez)
TTITLE18=Popurri Ranchero (Maria de Lourdes)
TTITLE19=Cucurrucucu Paloma (Maria Vidal)
EXTD=
EXTT0=
EXTT1=
EXTT2=
EXTT3=
EXTT4=
EXTT5=
EXTT6=
EXTT7=
EXTT8=
EXTT9=
EXTT10=
EXTT11=
EXTT12=
EXTT13=
EXTT14=
EXTT15=
EXTT16=
EXTT17=
EXTT18=
EXTT19=
PLAYORDER=
